<svg width="40" height="40" fill="none" xmlns="http://www.w3.org/2000/svg"><path d="M12.8 6.7a6.157 6.157 0 0 1-6.15 6.15A6.157 6.157 0 0 1 .5 6.7 6.157 6.157 0 0 1 6.65.548a6.157 6.157 0 0 1 6.15 6.15ZM26.15 19.993V20c0 3.391-2.759 6.15-6.15 6.15A6.157 6.157 0 0 1 13.85 20c0-3.391 2.759-6.15 6.15-6.15 3.398 0 6.195 2.763 6.15 6.143ZM12.8 33.343v.007a6.157 6.157 0 0 1-6.15 6.15A6.157 6.157 0 0 1 .5 33.35a6.157 6.157 0 0 1 6.15-6.15c3.444 0 6.196 2.76 6.15 6.143ZM27.2 6.65A6.157 6.157 0 0 1 33.35.5a6.157 6.157 0 0 1 6.15 6.15 6.157 6.157 0 0 1-6.15 6.15 6.157 6.157 0 0 1-6.15-6.15ZM27.2 33.35a6.157 6.157 0 0 1 6.15-6.15 6.157 6.157 0 0 1 6.15 6.15 6.157 6.157 0 0 1-6.15 6.15 6.157 6.157 0 0 1-6.15-6.15Z" stroke="#004650"/></svg>